<?xml version="1.0" ?><svg viewBox="0 0 64 64" xmlns="http://www.w3.org/2000/svg"><g data-name="13-bin" id="_13-bin"><polygon points="51 63 13 63 9 17 55 17 51 63" style="fill:#a8d7e4"/><path d="M60,17H4l1.24254-4.97014A4,4,0,0,1,9.12311,9H54.87689a4,4,0,0,1,3.88057,3.02986Z" style="fill:#87bbc9"/><path d="M43,9H21l1.62127-6.48507A2,2,0,0,1,24.56155,1h14.8769a2,2,0,0,1,1.94028,1.51493Z" style="fill:#a8d7e4"/><path d="M32,55a2.0001,2.0001,0,0,1-2-2V27a2,2,0,0,1,4,0V53A2.0001,2.0001,0,0,1,32,55Z" style="fill:#87bbc9"/><path d="M20.998,55a2.00029,2.00029,0,0,1-1.99212-1.84667L17.006,27.15347a2,2,0,1,1,3.98815-.30664L22.994,52.84669a2,2,0,0,1-1.84076,2.14745Q21.07492,55,20.998,55Z" style="fill:#87bbc9"/><path d="M43.002,55a2.00029,2.00029,0,0,0,1.99212-1.84667L46.994,27.15347a2,2,0,1,0-3.98815-.30664L41.006,52.84669a2,2,0,0,0,1.84076,2.14745Q42.92508,55,43.002,55Z" style="fill:#87bbc9"/></g></svg>