<?xml version="1.0" ?><svg viewBox="0 0 64 64" xmlns="http://www.w3.org/2000/svg"><title/><g id="Download"><path d="M30.5054,51.3291a2,2,0,0,0,2.9892,0l16-18A2,2,0,0,0,48,30H40V6a2,2,0,0,0-2-2H26a2,2,0,0,0-2,2V30H16a2,2,0,0,0-1.4946,3.3291ZM26,34a2,2,0,0,0,2-2V8h8V32a2,2,0,0,0,2,2h5.5464L32,46.9893,20.4536,34Z"/><path d="M53,42a2,2,0,0,0-2,2V54a2.0023,2.0023,0,0,1-2,2H15a2.0023,2.0023,0,0,1-2-2V44a2,2,0,0,0-4,0V54a6.0066,6.0066,0,0,0,6,6H49a6.0066,6.0066,0,0,0,6-6V44A2,2,0,0,0,53,42Z"/></g></svg>