<?xml version="1.0" ?><svg viewBox="0 0 64 64" xmlns="http://www.w3.org/2000/svg"><title/><g id="Search"><path d="M58.2437,49.7573,46.7505,38.2637a4.004,4.004,0,0,0-5.6572,0l-2.4719-2.4719A19.5348,19.5348,0,1,0,35.7933,38.62l2.4718,2.4719a3.9993,3.9993,0,0,0,0,5.6567L49.7593,58.2427a6,6,0,1,0,8.4844-8.4854ZM8.0015,23.5a15.5,15.5,0,1,1,15.5,15.5A15.5173,15.5173,0,0,1,8.0015,23.5Zm47.414,31.9146a2.0491,2.0491,0,0,1-2.8281,0L41.0933,43.92l2.8291-2.8281L55.4155,52.5854A2.0041,2.0041,0,0,1,55.4155,55.4146Z"/></g></svg>