<svg width="21" height="18" viewBox="0 0 21 18" fill="none" xmlns="http://www.w3.org/2000/svg">
<path d="M11.7 0C11.3 0 10.9 0.3 10.9 0.8C10.9 1.3 11.2 1.6 11.7 1.6C15.8 1.6 19 4.9 19 8.9C19 12.9 15.7 16.2 11.7 16.2C7.69997 16.2 4.39997 12.9 4.39997 8.9C4.39997 7.4 4.89997 6 5.69997 4.8L6.49997 6.8C6.59997 7 6.79997 7.2 7.09997 7.2C7.19997 7.2 7.29997 7.2 7.39997 7.1C7.79997 7 7.99997 6.5 7.79997 6.1L6.59997 3.1C6.39997 2.8 6.09997 2.4 5.69997 2.3C5.29997 2.2 4.89997 2.1 4.39997 2.3L1.39997 3.5C0.99997 3.7 0.79997 4.1 0.99997 4.5C1.19997 4.9 1.59997 5.1 1.99997 4.9L4.29997 4C3.29997 5.4 2.79997 7.1 2.79997 8.9C2.79997 13.8 6.79997 17.7 11.6 17.7C16.4 17.7 20.4 13.7 20.4 8.9C20.4 4.1 16.5 0 11.7 0Z" fill="#525B63"/>
</svg>
